<?xml version="1.0" encoding="utf-8"?>
<!-- Generator: Adobe Illustrator 18.0.0, SVG Export Plug-In . SVG Version: 6.00 Build 0)  -->
<!DOCTYPE svg PUBLIC "-//W3C//DTD SVG 1.1//EN" "http://www.w3.org/Graphics/SVG/1.1/DTD/svg11.dtd">
<svg version="1.1" id="Layer_1" xmlns="http://www.w3.org/2000/svg" xmlns:xlink="http://www.w3.org/1999/xlink" x="0px" y="0px"
	 viewBox="0 0 76.8 79" enable-background="new 0 0 76.8 79" xml:space="preserve">
<g>
	<g>
		<path fill="#4E4F50" d="M8.7,9.7c-3.9,0-7,3.1-7,7v54.1c0,3.9,3.1,7,7,7h60.1c3.9,0,7-3.1,7-7V16.7c0-3.9-3.1-7-7-7h-2.4v4.4
			c0,3-2.4,5.4-5.4,5.4c-3,0-5.4-2.4-5.4-5.4V9.7H21.9v4.4c0,3-2.4,5.4-5.4,5.4c-3,0-5.4-2.4-5.4-5.4V9.7H8.7z M13.2,29.3h51.3
			c1.5,0,2.8,1.1,2.8,2.5v35c0,1.4-1.3,2.5-2.8,2.5H13.2c-1.5,0-2.8-1.1-2.8-2.5v-35C10.4,30.4,11.6,29.3,13.2,29.3z"/>
		<path fill="#4E4F50" d="M14,3.4v6.3v4.4c0,1.4,1.1,2.6,2.6,2.6c1.4,0,2.6-1.1,2.6-2.6V9.7V3.4c0-1.4-1.2-2.6-2.6-2.6
			C15.1,0.9,14,2,14,3.4z"/>
		<path fill="#4E4F50" d="M58.5,3.4v6.3v4.4c0,1.4,1.2,2.6,2.6,2.6c1.4,0,2.6-1.1,2.6-2.6V9.7V3.4c0-1.4-1.1-2.6-2.6-2.6
			C59.6,0.9,58.5,2,58.5,3.4z"/>
	</g>
	<rect x="15.3" y="33.7" fill="#4E4F50" width="13.6" height="13.9"/>
	<rect x="32.3" y="33.7" fill="#4E4F50" width="13.6" height="13.9"/>
	<rect x="15.3" y="50.7" fill="#4E4F50" width="13.6" height="13.9"/>
	<rect x="32.3" y="50.7" fill="#4E4F50" width="13.6" height="13.9"/>
	<rect x="50.1" y="33.7" fill="#4E4F50" width="13.6" height="13.9"/>
	<rect x="50.1" y="50.7" fill="#4E4F50" width="13.6" height="13.9"/>
</g>
</svg>
