<?xml version="1.0" encoding="utf-8"?>
<!-- Generator: Adobe Illustrator 18.0.0, SVG Export Plug-In . SVG Version: 6.00 Build 0)  -->
<!DOCTYPE svg PUBLIC "-//W3C//DTD SVG 1.1//EN" "http://www.w3.org/Graphics/SVG/1.1/DTD/svg11.dtd">
<svg version="1.1" id="Layer_1" xmlns="http://www.w3.org/2000/svg" xmlns:xlink="http://www.w3.org/1999/xlink" x="0px" y="0px"
	 viewBox="0 0 82.9 76.3" enable-background="new 0 0 82.9 76.3" xml:space="preserve">
<g>
	<path fill="#4E4F50" d="M64.6,15.4c-4.1,2.4-7.1,3.8-9.4,3.4c2.5-1.1,6.9-3.4,9.3-8.8c0.2-0.4-1.1-1-1.5-1.2
		c-0.4-0.2-0.9,0-1.1,0.4c-1.8,4.2-4.2,6.4-6.3,7.5c2.4-4.4,3.8-10.4,3.8-15H41.3H22.4c0,5.8,2.4,14.2,6.1,18.2h24.8c0,0,0,0,0,0
		c1,0.3,2.2,0.5,3.7,0.5c2.4,0,5.4-0.6,8.8-2.6c0.4-0.2,0.1-1.9-0.1-2.3C65.5,15.3,65,15.2,64.6,15.4z"/>
	<path fill="#4E4F50" d="M53.6,21.9h-0.2H28.4h-0.2C15.5,27,6.4,39.4,6.4,53.9c0,19,15.4,20.7,34.5,20.7c19,0,34.5-1.6,34.5-20.7
		C75.4,39.4,66.3,27,53.6,21.9z M50.3,53.1c-0.4,4.2-3.9,6.7-7.1,7l0,4.4H39v-4.1c0,0-4.8-0.3-7.6-2l1.6-5c0,0,1.9,1,4.1,1.5
		c2.2,0.5,6.1,0.3,6.6-1.8c0.5-2-0.9-2.8-3.6-3.6c-2.7-0.8-7.5-3-8-6.7c-0.5-4,1.4-7.2,6.8-8.3v-4.3h4.3v3.7c0,0,4.4,0.3,6,1.4
		l-1,4.6c0,0-4.1-1.4-6.9-1.2c-2.8,0.2-3,3.1-1,4.3c2.4,1.5,5.8,2.6,7,3.2C48.3,47,50.7,49,50.3,53.1z"/>
</g>
</svg>
