<?xml version="1.0" encoding="iso-8859-1"?>
<!-- Generator: Adobe Illustrator 23.1.1, SVG Export Plug-In . SVG Version: 6.00 Build 0)  -->
<svg version="1.1" id="_x31_-outline-expand" xmlns="http://www.w3.org/2000/svg" xmlns:xlink="http://www.w3.org/1999/xlink"
	 x="0px" y="0px" viewBox="0 0 64 64" style="enable-background:new 0 0 64 64;" xml:space="preserve">
<path d="M17,50c0.553,0,1-0.447,1-1V37h3c0.553,0,1-0.447,1-1v-7c0-2.757-2.243-5-5-5h-0.54c0.954-1.063,1.54-2.462,1.54-4
	c0-3.309-2.691-6-6-6s-6,2.691-6,6c0,1.538,0.586,2.937,1.54,4H7c-2.757,0-5,2.243-5,5v7c0,0.553,0.447,1,1,1h3v12
	c0,0.553,0.447,1,1,1H17z M8,20c0-2.206,1.794-4,4-4s4,1.794,4,4s-1.794,4-4,4S8,22.206,8,20z M11,37v11H8V29H6v6H4v-6
	c0-1.654,1.346-3,3-3h10c1.654,0,3,1.346,3,3v6h-2v-6h-2v19h-3V37H11z"/>
<path d="M57,24h-0.54c0.954-1.063,1.54-2.462,1.54-4c0-3.309-2.691-6-6-6s-6,2.691-6,6c0,1.538,0.586,2.937,1.54,4H47
	c-2.757,0-5,2.243-5,5v7c0,0.553,0.447,1,1,1h3v12c0,0.553,0.447,1,1,1h10c0.553,0,1-0.447,1-1V37h3c0.553,0,1-0.447,1-1v-7
	C62,26.243,59.757,24,57,24z M48,20c0-2.206,1.794-4,4-4s4,1.794,4,4s-1.794,4-4,4S48,22.206,48,20z M60,35h-2v-6h-2v19h-3V37h-2v11
	h-3V29h-2v6h-2v-6c0-1.654,1.346-3,3-3h10c1.654,0,3,1.346,3,3V35z"/>
<path d="M51,7v1.586l-2.293-2.293l-1.414,1.414l4,4C51.488,11.902,51.744,12,52,12s0.512-0.098,0.707-0.293l4-4l-1.414-1.414
	L53,8.586V7c0-2.757-2.243-5-5-5H25v2h23C49.654,4,51,5.346,51,7z"/>
<path d="M13,7c0-1.654,1.346-3,3-3h7V2h-7c-2.757,0-5,2.243-5,5v5h2V7z"/>
<path d="M13,57v-1.586l2.293,2.293l1.414-1.414l-4-4c-0.391-0.391-1.023-0.391-1.414,0l-4,4l1.414,1.414L11,55.414V57
	c0,2.757,2.243,5,5,5h19v-2H16C14.346,60,13,58.654,13,57z"/>
<rect x="37" y="60" width="2" height="2"/>
<path d="M51,57c0,1.654-1.346,3-3,3h-7v2h7c2.757,0,5-2.243,5-5v-5h-2V57z"/>
</svg>
